<svg width="65" height="42" viewBox="0 0 65 42" fill="none" xmlns="http://www.w3.org/2000/svg">
<path d="M50.1854 16.7091L47.4527 19.5275L44.804 16.7091H36.1454V25.309H44.6685L47.4202 22.4596L50.069 25.309H52.8369L48.8123 21.0336L52.8369 16.7091H50.1854ZM43.5798 23.5265H38.2823V21.8086H43.0029V20.0597H38.2823V18.489H43.6827L46.0417 21L43.5798 23.5265ZM19.9767 16.4172L19.9496 16.3655H19.9767V16.4172ZM28.0935 22.5397L25.2742 16.7091H21.7588V24.8389L18.1079 16.7091H14.9012L11.0473 25.309H13.39L14.2215 23.3819H18.7038L19.5352 25.309H23.9173V18.5717L27.0427 25.309H28.944L32.0504 18.5717L32.0667 25.309H34.19V16.7091H30.6908L28.0935 22.5397ZM14.9852 21.5994L16.4613 18.1661L17.9373 21.5994H14.9852ZM59.5833 0.333374H5.41667C2.42667 0.333374 0 2.64804 0 5.50004V36.5C0 39.352 2.42667 41.6667 5.41667 41.6667H59.5833C62.5733 41.6667 65 39.352 65 36.5V5.50004C65 2.64804 62.5733 0.333374 59.5833 0.333374ZM56.875 26.9934H49.1319L47.4175 25.1308L45.584 26.9934H18.2108L17.3956 25.0817H15.5269L14.7117 26.9934H8.125L13.6256 15.0067H26.5471L27.9906 18.1015L29.399 15.0067H45.8006L47.4635 16.8357L49.2456 15.0067H56.875L51.3554 21.031L56.875 26.9934Z" fill="#D3D3D3"/>
</svg>
