<svg width="102" height="97" viewBox="0 0 102 97" fill="none" xmlns="http://www.w3.org/2000/svg">
<path fill-rule="evenodd" clip-rule="evenodd" d="M51 0C79.1478 0 102 21.732 102 48.5C102 75.268 79.1478 97 51 97C22.8522 97 0 75.268 0 48.5C0 21.732 22.8522 0 51 0ZM51 4.04167C76.8018 4.04167 97.75 23.963 97.75 48.5C97.75 73.037 76.8018 92.9583 51 92.9583C25.1982 92.9583 4.25 73.037 4.25 48.5C4.25 23.963 25.1982 4.04167 51 4.04167ZM73.2998 36.375L51 62.4033L28.6322 36.375L25.5 39.1152L51 68.7083L76.5 39.0627L73.2998 36.375Z" fill="white"/>
</svg>
