<svg width="30" height="30" viewBox="0 0 30 30" fill="none" xmlns="http://www.w3.org/2000/svg">
<path d="M19.0413 6.86C17.9875 6.8125 17.67 6.8025 15 6.8025C12.33 6.8025 12.0137 6.8125 10.96 6.86C8.2475 6.98375 6.98375 8.26875 6.86125 10.9587C6.8125 12.0138 6.80125 12.33 6.80125 15C6.80125 17.67 6.8125 17.9862 6.86 19.0413C6.98375 21.7262 8.2425 23.0162 10.9587 23.14C12.0125 23.1875 12.33 23.1987 15 23.1987C17.6712 23.1987 17.9875 23.1888 19.0413 23.1413C21.7537 23.0175 23.0162 21.73 23.14 19.0425C23.1875 17.9875 23.1975 17.6712 23.1975 15.0013C23.1975 12.3313 23.1875 12.015 23.14 10.9613C23.0162 8.27 21.7513 6.98375 19.0413 6.86ZM15 20.135C12.1637 20.135 9.865 17.8363 9.865 15C9.865 12.1637 12.165 9.865 15 9.865C17.835 9.865 20.135 12.1637 20.135 15C20.135 17.8363 17.8363 20.135 15 20.135ZM20.3387 10.8625C19.6762 10.8625 19.1388 10.325 19.1388 9.6625C19.1388 9 19.6762 8.4625 20.3387 8.4625C21.0012 8.4625 21.5388 9 21.5388 9.6625C21.5388 10.325 21.0012 10.8625 20.3387 10.8625ZM18.3337 15C18.3337 16.8412 16.8412 18.3337 15 18.3337C13.1587 18.3337 11.6663 16.8412 11.6663 15C11.6663 13.1587 13.1587 11.6663 15 11.6663C16.8412 11.6663 18.3337 13.1587 18.3337 15ZM23.75 0H6.25C2.79875 0 0 2.79875 0 6.25V23.75C0 27.2013 2.79875 30 6.25 30H23.75C27.2025 30 30 27.2013 30 23.75V6.25C30 2.79875 27.2025 0 23.75 0ZM24.94 19.1225C24.775 22.7588 22.7512 24.7737 19.1237 24.94C18.0562 24.9887 17.7162 25 15 25C12.2837 25 11.945 24.9887 10.8775 24.94C7.2425 24.7737 5.2275 22.755 5.06 19.1225C5.01125 18.0563 5 17.7162 5 15C5 12.285 5.01125 11.9437 5.06 10.8775C5.2275 7.2425 7.245 5.22625 10.8775 5.06125C11.945 5.01125 12.2837 5 15 5C17.7162 5 18.0562 5.01125 19.1237 5.06C22.7587 5.22625 24.7775 7.24875 24.94 10.8763C24.9887 11.9438 25 12.285 25 15C25 17.7162 24.9887 18.0563 24.94 19.1225Z" fill="#D3D3D3"/>
</svg>
