<svg width="65" height="63" viewBox="0 0 65 63" fill="none" xmlns="http://www.w3.org/2000/svg">
<path d="M64.5 31.5C64.5 48.6062 50.188 62.5 32.5 62.5C14.812 62.5 0.5 48.6062 0.5 31.5C0.5 14.3938 14.812 0.5 32.5 0.5C50.188 0.5 64.5 14.3938 64.5 31.5Z" stroke="#C4C4C4"/>
<path d="M38.3117 23.5517C29.8 28.1934 17.1117 38.8467 12 49.3334H16.8983C18.2633 45.965 21.1017 41.7733 23.3167 39.4967C37.2933 45.7417 52 34.8717 52 20.5917C52 18.0334 51.4967 15.365 50.4667 12.6667C46.555 17.865 41.055 14.42 32.3817 15.375C19.62 16.7817 13.7783 26.7034 17.775 34.6084C23.6183 28.9167 33.6467 23.975 38.3117 23.5517Z" fill="#D4D4D4"/>
</svg>
