<svg width="65" height="42" viewBox="0 0 65 42" fill="none" xmlns="http://www.w3.org/2000/svg">
<path d="M41.8844 32.4804C41.8844 32.979 41.5377 33.3561 41.0204 33.3561C40.4815 33.3561 40.151 32.9609 40.151 32.4804C40.151 31.9999 40.4815 31.6046 41.0204 31.6046C41.535 31.6072 41.8844 31.9844 41.8844 32.4804ZM23.4298 31.6072C22.8908 31.6072 22.5604 32.0025 22.5604 32.483C22.5604 32.9635 22.8908 33.3587 23.4298 33.3587C23.9444 33.3587 24.2938 32.9815 24.2938 32.483C24.2938 31.9844 23.9471 31.6072 23.4298 31.6072ZM32.6137 31.5788C32.1696 31.5788 31.9177 31.8475 31.8527 32.2427H33.3396C33.2746 31.819 33.0173 31.5788 32.6137 31.5788ZM46.8054 31.6072C46.2665 31.6072 45.936 32.0025 45.936 32.483C45.936 32.9635 46.2665 33.3587 46.8054 33.3587C47.32 33.3587 47.6694 32.9815 47.6694 32.483C47.6694 31.9844 47.32 31.6072 46.8054 31.6072ZM65 5.50004V36.5C65 39.352 62.5733 41.6667 59.5833 41.6667H5.41667C2.42667 41.6667 0 39.352 0 36.5V5.50004C0 2.64804 2.42667 0.333374 5.41667 0.333374H59.5833C62.5733 0.333374 65 2.64804 65 5.50004ZM15.015 18.378C15.015 24.0639 19.8467 28.6725 25.8077 28.6725C27.8904 28.6725 29.835 28.1068 31.4844 27.1329C28.8654 25.0326 27.1998 21.8887 27.1998 18.378C27.1998 14.8672 28.8681 11.7233 31.4844 9.62304C29.835 8.64912 27.8931 8.08337 25.8077 8.08337C19.8494 8.08337 15.015 12.692 15.015 18.378ZM21.3687 32.1316C21.3687 31.4858 20.9381 31.0518 20.2421 31.044C19.8765 31.0389 19.5 31.1474 19.2346 31.5297C19.0369 31.2275 18.7254 31.044 18.2867 31.044C17.9806 31.044 17.68 31.1293 17.4471 31.4496V31.1112H16.8242V33.8444H17.4525V32.328C17.4525 31.8526 17.7288 31.602 18.154 31.602C18.5683 31.602 18.7769 31.8604 18.7769 32.3228V33.8444H19.4052V32.328C19.4052 31.8526 19.6923 31.602 20.1067 31.602C20.5319 31.602 20.735 31.8604 20.735 32.3228V33.8444H21.3687V32.1316ZM24.8815 31.1138H24.2585V31.4445C24.0608 31.199 23.7602 31.044 23.354 31.044C22.5496 31.044 21.9212 31.6434 21.9212 32.4804C21.9212 33.3174 22.5496 33.9167 23.354 33.9167C23.7629 33.9167 24.0608 33.7617 24.2585 33.5163V33.847H24.8815V31.1138ZM28.034 33.0255C28.034 32.545 27.6575 32.2944 27.0319 32.2065L26.7394 32.1652C26.4685 32.1316 26.2546 32.08 26.2546 31.8965C26.2546 31.695 26.4577 31.5762 26.799 31.5762C27.1646 31.5762 27.5194 31.708 27.6927 31.8113L27.9635 31.3308C27.6629 31.1422 27.2512 31.044 26.7935 31.044C26.0677 31.044 25.6019 31.3747 25.6019 31.9198C25.6019 32.3667 25.9485 32.6405 26.5904 32.7258L26.8829 32.7671C27.2242 32.8136 27.3867 32.8989 27.3867 33.0539C27.3867 33.2657 27.1592 33.3845 26.734 33.3845C26.3033 33.3845 25.9919 33.2528 25.7806 33.0978L25.4881 33.5602C25.8294 33.803 26.26 33.9167 26.7285 33.9167C27.5546 33.9167 28.034 33.5447 28.034 33.0255ZM30.81 33.7049L30.6313 33.196C30.4444 33.2993 30.2412 33.351 30.0787 33.351C29.7673 33.351 29.6644 33.1675 29.6644 32.8937V31.6589H30.6827V31.1164H29.6644V30.2871H29.036V31.1164H28.4537V31.6589H29.036V32.9066C29.036 33.5421 29.2933 33.9193 30.03 33.9193C30.3008 33.9167 30.6123 33.8366 30.81 33.7049ZM33.9869 32.4804C33.9815 31.6279 33.429 31.044 32.6246 31.044C31.785 31.044 31.1973 31.6279 31.1973 32.4804C31.1973 33.3484 31.8094 33.9167 32.6652 33.9167C33.0958 33.9167 33.4912 33.8134 33.8406 33.5344L33.5346 33.0952C33.2935 33.2786 32.9902 33.382 32.7004 33.382C32.2996 33.382 31.934 33.2037 31.8419 32.7129H33.9706L33.9869 32.4804ZM36.446 31.1215L36.0019 31.0466C35.6417 31.0466 35.4087 31.2068 35.2463 31.447V31.1164H34.6287V33.8495H35.2517V32.315C35.2517 31.863 35.4548 31.6124 35.8637 31.6124L36.2537 31.6821L36.446 31.1215ZM37.2802 32.4804C37.2802 31.9534 37.6458 31.6124 38.1442 31.6046C38.415 31.6046 38.6587 31.6899 38.8944 31.85L39.195 31.3695C38.8835 31.1345 38.5965 31.044 38.1631 31.044C37.2396 31.044 36.6356 31.6511 36.6356 32.4804C36.6356 33.3096 37.2369 33.9167 38.1604 33.9167C38.591 33.9167 38.8808 33.8263 39.1923 33.5912L38.8917 33.1107C38.6587 33.2709 38.4123 33.3561 38.1415 33.3561C37.6458 33.351 37.2802 33.0074 37.2802 32.4804ZM42.4694 31.1138H41.8465V31.4445C41.6488 31.199 41.3481 31.044 40.9419 31.044C40.1375 31.044 39.5092 31.6434 39.5092 32.4804C39.5092 33.3148 40.1375 33.9167 40.9419 33.9167C41.3508 33.9167 41.6488 33.7617 41.8465 33.5163V33.847H42.4694V31.1138ZM45.1073 31.1215L44.6631 31.0466C44.3029 31.0466 44.07 31.2068 43.9075 31.447V31.1164H43.29V33.8495H43.9129V32.315C43.9129 31.863 44.116 31.6124 44.525 31.6124L44.915 31.6821L45.1073 31.1215ZM48.2544 30.0159H47.6315V31.4445C47.4338 31.199 47.1331 31.044 46.7269 31.044C45.9225 31.044 45.2942 31.6434 45.2942 32.4804C45.2942 33.3148 45.9225 33.9167 46.7269 33.9167C47.1358 33.9167 47.4338 33.7617 47.6315 33.5163V33.847H48.2544V30.0159ZM49.985 18.378C49.985 12.692 45.1506 8.08337 39.1923 8.08337C33.234 8.08337 28.3996 12.692 28.3996 18.378C28.3996 24.0639 33.2312 28.6725 39.1923 28.6725C45.1533 28.6725 49.985 24.0639 49.985 18.378Z" fill="#D3D3D3"/>
</svg>
