<svg width="65" height="63" viewBox="0 0 65 63" fill="none" xmlns="http://www.w3.org/2000/svg">
<path d="M64.5 31.5C64.5 48.6062 50.188 62.5 32.5 62.5C14.812 62.5 0.5 48.6062 0.5 31.5C0.5 14.3938 14.812 0.5 32.5 0.5C50.188 0.5 64.5 14.3938 64.5 31.5Z" stroke="#C4C4C4"/>
<path d="M46.605 28.295C45.4483 29.16 44.0433 29.63 42.6 29.63C39.9217 29.63 38.575 26.3583 40.4633 24.4717C41.4867 23.4467 42.8067 22.79 44.24 22.5833C46.9417 22.195 48.13 18.8433 46.1433 16.855C44.1567 14.8667 40.805 16.0567 40.415 18.7583C40.21 20.1867 39.5483 21.5133 38.5283 22.535C36.6317 24.4317 33.37 23.0833 33.37 20.3983C33.37 18.95 33.8367 17.5517 34.705 16.3933C36.3433 14.2067 34.8067 11 32 11C29.195 11 27.6567 14.205 29.295 16.395C30.16 17.55 30.63 18.9567 30.63 20.4C30.63 23.0833 27.37 24.435 25.4717 22.5367C24.4483 21.5133 23.7917 20.195 23.585 18.76C23.1967 16.0583 19.8467 14.87 17.8583 16.8583C15.87 18.8467 17.0583 22.1967 19.76 22.585C21.1883 22.79 22.515 23.4517 23.5367 24.4717C25.4333 26.37 24.085 29.63 21.4 29.63C19.9517 29.63 18.555 29.1633 17.395 28.295C15.2067 26.6567 12 28.1933 12 31C12 33.805 15.205 35.3433 17.395 33.705C18.55 32.84 19.9567 32.37 21.4 32.37C24.0833 32.37 25.435 35.63 23.5367 37.5283C22.5133 38.5533 21.1933 39.21 19.76 39.4167C17.0583 39.805 15.87 43.1567 17.8567 45.145C19.8433 47.1333 23.195 45.9433 23.585 43.2417C23.79 41.8133 24.4517 40.4867 25.4717 39.465C27.37 37.5683 30.63 38.9167 30.63 41.6017C30.63 43.05 30.1633 44.4483 29.295 45.6083C27.66 47.7883 29.1883 51 32 51C34.795 51 36.3517 47.8017 34.7017 45.6C33.8383 44.4517 33.37 43.0533 33.37 41.6167C33.37 38.925 36.6317 37.5633 38.5283 39.4617C39.5533 40.4867 40.21 41.805 40.4167 43.24C40.805 45.9417 44.1567 47.13 46.145 45.1433C48.1283 43.16 46.95 39.8 44.235 39.415C42.8117 39.2133 41.4917 38.5567 40.4767 37.54C38.5717 35.6383 39.915 32.37 42.6 32.37C44.05 32.37 45.4467 32.8367 46.6067 33.705C48.7883 35.34 52 33.8117 52 31C52 28.19 48.79 26.6583 46.605 28.295ZM28.725 35.455C27.8133 35.455 27.075 34.7167 27.075 33.805C27.075 32.8933 27.8133 32.155 28.725 32.155C29.6367 32.155 30.375 32.8933 30.375 33.805C30.375 34.7167 29.6367 35.455 28.725 35.455ZM30.8283 30.2167C29.3983 30.2167 28.24 29.0583 28.24 27.6283C28.24 26.1983 29.3983 25.04 30.8283 25.04C32.2583 25.04 33.4167 26.1983 33.4167 27.6283C33.4167 29.0583 32.2583 30.2167 30.8283 30.2167ZM35.7083 35.165C34.4967 35.165 33.5167 34.1833 33.5167 32.9733C33.5167 31.7633 34.4983 30.7817 35.7083 30.7817C36.9183 30.7817 37.9 31.7633 37.9 32.9733C37.9 34.1833 36.9183 35.165 35.7083 35.165Z" fill="#D4D4D4"/>
</svg>
