<svg width="65" height="42" viewBox="0 0 65 42" fill="none" xmlns="http://www.w3.org/2000/svg">
<path d="M53.2513 18.8197L54.2669 23.2527H50.6269L52.3737 18.9618L52.956 17.497L53.2513 18.8197ZM65 5.50004V36.5C65 39.352 62.5733 41.6667 59.5833 41.6667H5.41667C2.42667 41.6667 0 39.352 0 36.5V5.50004C0 2.64804 2.42667 0.333374 5.41667 0.333374H59.5833C62.5733 0.333374 65 2.64804 65 5.50004ZM18.5629 28.6751L25.4665 13.3585H20.8217L16.529 23.8236L16.0712 21.6975L14.5329 14.645C14.2675 13.6711 13.4956 13.3818 12.545 13.3482H5.47354L5.41667 13.666C7.13646 14.0638 8.67479 14.6373 10.0235 15.3477L13.9235 28.6777L18.5629 28.6751ZM31.6252 13.3456H27.2404L24.4996 28.6932H28.8844L31.6252 13.3456ZM44.1512 23.6764C44.1675 21.93 43.0002 20.6022 40.4706 19.5069C38.9377 18.7965 37.9979 18.3237 38.0088 17.6055C38.0088 16.9675 38.8023 16.2855 40.5194 16.2855C41.9548 16.2648 42.9921 16.5619 43.8019 16.8745L44.1946 17.0501L44.7877 13.7254C43.9183 13.4128 42.556 13.0795 40.8579 13.0795C36.5246 13.0795 33.4723 15.1617 33.4452 18.1455C33.4208 20.3516 35.6254 21.5813 37.2883 22.315C38.9946 23.0667 39.5687 23.5472 39.5606 24.2189C39.5498 25.247 38.1983 25.7172 36.9362 25.7172C35.1812 25.7172 34.2496 25.4847 32.8088 24.9112L32.2427 24.6658L31.6279 28.1016C32.6517 28.5305 34.5475 28.9025 36.5137 28.9205C41.1233 28.9205 44.116 26.8616 44.1512 23.6764ZM59.5833 28.6984L56.0327 13.3611H52.6446C51.5937 13.3611 50.8083 13.635 50.3479 14.6347L43.8344 28.6984H48.4385L49.3621 26.3915L54.9792 26.3992L55.5127 28.6984H59.5833Z" fill="#D3D3D3"/>
</svg>
